# xmcd
#
# Track frame offsets:
#	150
#	16280
#	31727
#	52389
#	73685
#	86576
#	106485
#	129992
#	150320
#	171865
#
# Disc length: 2543 seconds
# Revision: 0
# Processed by: cddbd v1.5.2PL0 Copyright (c) Steve Scherf et al.
# Submitted via: dBpowerAMP V12.0
#
DISCID=7b09ed0a
DTITLE=方大同 - JTW 西遊記 – GOLD ALBUM
DYEAR=2016
DGENRE=Blues
TTITLE0=All Night feat. 王詩安
TTITLE1=Right Girl
TTITLE2=Run From Your Love feat. Fifi Rong
TTITLE3=煩
TTITLE4=Once
TTITLE5=無所謂 feat. 張靚穎
TTITLE6=黑夜
TTITLE7=很不低調
TTITLE8=放不過自己
TTITLE9=As I Do
EXTD=
EXTT0=
EXTT1=
EXTT2=
EXTT3=
EXTT4=
EXTT5=
EXTT6=
EXTT7=
EXTT8=
EXTT9=
PLAYORDER=
